<svg width="60" height="60" viewBox="0 0 60 60" fill="none" xmlns="http://www.w3.org/2000/svg">
<g clip-path="url(#clip0_30_7241)">
<rect x="-4" y="-4" width="67.8518" height="67.8518" rx="6" fill="#00DAC0"/>
<path d="M27.5 31.25C28.0368 31.9676 28.7217 32.5614 29.5082 32.9911C30.2947 33.4208 31.1644 33.6764 32.0583 33.7404C32.9522 33.8044 33.8495 33.6754 34.6892 33.3622C35.5289 33.049 36.2914 32.5588 36.925 31.925L40.675 28.175C41.8135 26.9962 42.4435 25.4174 42.4292 23.7787C42.415 22.14 41.7577 20.5724 40.5989 19.4136C39.4401 18.2548 37.8725 17.5975 36.2338 17.5832C34.595 17.569 33.0163 18.199 31.8375 19.3375L29.6875 21.475" stroke="#FDFDFD" stroke-width="3" stroke-linecap="round" stroke-linejoin="round"/>
<path d="M32.5 28.75C31.9632 28.0324 31.2783 27.4386 30.4918 27.0089C29.7053 26.5792 28.8356 26.3236 27.9417 26.2596C27.0478 26.1956 26.1505 26.3246 25.3108 26.6378C24.4711 26.951 23.7086 27.4412 23.075 28.075L19.325 31.825C18.1865 33.0038 17.5566 34.5826 17.5708 36.2213C17.585 37.86 18.2423 39.4276 19.4011 40.5864C20.5599 41.7452 22.1275 42.4025 23.7662 42.4168C25.405 42.431 26.9837 41.801 28.1625 40.6625L30.3 38.525" stroke="#FDFDFD" stroke-width="3" stroke-linecap="round" stroke-linejoin="round"/>
</g>
<defs>
<clipPath id="clip0_30_7241">
<rect width="60" height="60" rx="5" fill="white"/>
</clipPath>
</defs>
</svg>
