<svg width="20" height="16" viewBox="0 0 20 16" fill="none" xmlns="http://www.w3.org/2000/svg">
<path fill-rule="evenodd" clip-rule="evenodd" d="M0.77 0C0.344741 0 0 0.344741 0 0.77C0 1.19526 0.344741 1.54 0.77 1.54L15.8724 1.54C16.2976 1.54 16.6424 1.19526 16.6424 0.77C16.6424 0.344741 16.2976 0 15.8724 0H0.77ZM11.2933 5.64667C11.2933 6.07193 10.9322 6.41667 10.4867 6.41667H0.806666C0.361157 6.41667 0 6.07193 0 5.64667C0 5.22141 0.361157 4.87667 0.806666 4.87667H10.4867C10.9322 4.87667 11.2933 5.22141 11.2933 5.64667ZM14.3733 6.16C14.7986 6.16 15.1433 6.50474 15.1433 6.93V10.2667H18.48C18.9053 10.2667 19.25 10.6114 19.25 11.0367C19.25 11.4619 18.9053 11.8067 18.48 11.8067H15.1433V15.1433C15.1433 15.5686 14.7986 15.9133 14.3733 15.9133C13.9481 15.9133 13.6033 15.5686 13.6033 15.1433V11.8067H10.2667C9.84141 11.8067 9.49667 11.4619 9.49667 11.0367C9.49667 10.6114 9.84141 10.2667 10.2667 10.2667H13.6033V6.93C13.6033 6.50474 13.9481 6.16 14.3733 6.16ZM0.803265 10.2667C0.359634 10.2667 0 10.6114 0 11.0367C0 11.4619 0.359634 11.8067 0.803265 11.8067L6.3834 11.8067C6.82703 11.8067 7.18667 11.4619 7.18667 11.0367C7.18667 10.6114 6.82703 10.2667 6.3834 10.2667L0.803265 10.2667Z" fill="#00DAC0"/>
</svg>
