<svg width="22" height="22" viewBox="0 0 22 22" fill="none" xmlns="http://www.w3.org/2000/svg">
<path fill-rule="evenodd" clip-rule="evenodd" d="M11 1.75C5.89137 1.75 1.75 5.89137 1.75 11C1.75 12.9987 2.38328 14.8485 3.46095 16.361C4.60555 14.6825 6.26249 13.422 8.10157 12.7635C6.97544 11.8949 6.25 10.5322 6.25 9C6.25 6.37665 8.37665 4.25 11 4.25C13.6234 4.25 15.75 6.37665 15.75 9C15.75 10.5322 15.0246 11.8949 13.8985 12.7635C15.7375 13.422 17.3945 14.6824 18.5391 16.3609C19.6167 14.8484 20.25 12.9987 20.25 11C20.25 5.89137 16.1086 1.75 11 1.75ZM17.5253 17.5562C16.1028 15.2118 13.5331 13.75 11.0001 13.75C8.467 13.75 5.89728 15.2119 4.47478 17.5562C6.14825 19.2219 8.45344 20.25 11 20.25C13.5466 20.25 15.8518 19.2218 17.5253 17.5562ZM0.25 11C0.25 5.06294 5.06294 0.25 11 0.25C16.9371 0.25 21.75 5.06294 21.75 11C21.75 13.9019 20.5992 16.5365 18.7307 18.4699C16.7769 20.4915 14.0348 21.75 11 21.75C7.96524 21.75 5.22312 20.4915 3.26933 18.4699C1.40081 16.5365 0.25 13.9019 0.25 11ZM11 5.75C9.20507 5.75 7.75 7.20507 7.75 9C7.75 10.7949 9.20507 12.25 11 12.25C12.7949 12.25 14.25 10.7949 14.25 9C14.25 7.20507 12.7949 5.75 11 5.75Z" fill="#0A0A0A"/>
</svg>
