<svg width="18" height="20" viewBox="0 0 18 20" fill="none" xmlns="http://www.w3.org/2000/svg">
<path fill-rule="evenodd" clip-rule="evenodd" d="M8.83337 0.25C9.24759 0.25 9.58337 0.585786 9.58337 1L9.58337 13.1893L14.303 8.46967C14.5959 8.17678 15.0708 8.17678 15.3637 8.46967C15.6566 8.76256 15.6566 9.23744 15.3637 9.53033L9.3643 15.5297L9.36311 15.5309L8.83337 16.0607L8.30304 15.5303L2.30304 9.53033C2.01015 9.23744 2.01015 8.76256 2.30304 8.46967C2.59594 8.17678 3.07081 8.17678 3.3637 8.46967L8.08337 13.1893L8.08337 1C8.08337 0.585786 8.41916 0.25 8.83337 0.25ZM0.833374 18.25C0.41916 18.25 0.083374 18.5858 0.083374 19C0.083374 19.4142 0.41916 19.75 0.833374 19.75H16.8334C17.2476 19.75 17.5834 19.4142 17.5834 19C17.5834 18.5858 17.2476 18.25 16.8334 18.25H0.833374Z" fill="#FDFDFD" fill-opacity="0.8"/>
</svg>
