<svg width="21" height="21" viewBox="0 0 21 21" fill="none" xmlns="http://www.w3.org/2000/svg">
<path fill-rule="evenodd" clip-rule="evenodd" d="M10.2696 2.00752C10.4219 1.97894 10.5783 1.97894 10.7306 2.00752C10.8783 2.03524 11.0322 2.10457 11.5958 2.38638L19.1646 6.17084C19.5351 6.35608 19.9856 6.20591 20.1709 5.83543C20.3561 5.46494 20.2059 5.01444 19.8355 4.8292L12.2666 1.04474L12.1883 1.00554C11.7403 0.781159 11.3879 0.604676 11.0072 0.533243C10.6721 0.470365 10.3281 0.470364 9.993 0.533241C9.61226 0.604672 9.2599 0.781154 8.81191 1.00554L8.7336 1.04473L1.16463 4.8292C0.794149 5.01444 0.64398 5.46494 0.829221 5.83542C1.01446 6.20591 1.46497 6.35608 1.83545 6.17084L9.40442 2.38638C9.96803 2.10457 10.1219 2.03524 10.2696 2.00752ZM10.2696 6.00752C10.4219 5.97894 10.5783 5.97894 10.7306 6.00752C10.8783 6.03524 11.0322 6.10457 11.5958 6.38638L16.6242 8.90059C17.5204 9.3487 17.824 9.50914 18.047 9.72031C18.3309 9.98904 18.5398 10.3271 18.6532 10.7011C18.7423 10.995 18.7501 11.3384 18.7501 12.3404V13.75C18.7501 14.9476 18.7464 15.4369 18.6684 15.8292C18.333 17.5151 17.0151 18.833 15.3292 19.1684C14.9966 19.2345 14.5944 19.2472 13.7501 19.2495V16C13.7501 14.2051 12.295 12.75 10.5001 12.75C8.70513 12.75 7.25006 14.2051 7.25006 16V19.2495C6.40572 19.2472 6.00349 19.2345 5.67095 19.1684C3.98499 18.833 2.66706 17.5151 2.33171 15.8291C2.25368 15.4369 2.25005 14.9476 2.25005 13.75L2.25005 12.3404C2.25004 11.3384 2.25775 10.995 2.34689 10.7011C2.46032 10.3271 2.66924 9.98905 2.95306 9.72031C3.17608 9.50914 3.47973 9.3487 4.37595 8.9006L9.40442 6.38638C9.96803 6.10457 10.1219 6.03524 10.2696 6.00752ZM11.0072 4.53324C10.6721 4.47037 10.3281 4.47036 9.993 4.53324C9.61226 4.60467 9.2599 4.78115 8.81191 5.00554L8.7336 5.04473L3.70513 7.55895L3.60359 7.60969L3.60359 7.60969C2.84827 7.987 2.32694 8.24743 1.92174 8.6311C1.44871 9.07899 1.10051 9.64239 0.911449 10.2658C0.749495 10.7998 0.749709 11.3826 0.750018 12.2269L0.750045 12.3404L0.750047 13.75L0.750041 13.8511C0.749936 14.9163 0.749873 15.5654 0.860531 16.1218C1.31424 18.4028 3.09733 20.1858 5.37832 20.6395C5.93463 20.7502 6.58372 20.7501 7.64896 20.75H7.64903L7.75006 20.75L7.75418 20.7501C7.77788 20.7504 7.88367 20.752 7.98539 20.7317C8.36225 20.6568 8.65684 20.3622 8.7318 19.9853C8.75204 19.8836 8.75046 19.7778 8.75011 19.7541L8.75006 19.75V16C8.75006 15.0335 9.53356 14.25 10.5001 14.25C11.4666 14.25 12.2501 15.0335 12.2501 16V19.75L12.25 19.7541C12.2497 19.7779 12.2481 19.8836 12.2683 19.9854C12.3433 20.3622 12.6379 20.6568 13.0147 20.7318C13.1164 20.752 13.2222 20.7504 13.2459 20.7501L13.2501 20.75L13.3511 20.75H13.3511C14.4164 20.7501 15.0655 20.7502 15.6218 20.6395C17.9028 20.1858 19.6859 18.4028 20.1396 16.1218C20.2502 15.5655 20.2502 14.9164 20.2501 13.8511L20.2501 13.75V12.3404L20.2501 12.2269C20.2504 11.3825 20.2506 10.7998 20.0886 10.2658C19.8996 9.64238 19.5514 9.079 19.0784 8.63111C18.6732 8.24743 18.1518 7.987 17.3965 7.60969L17.295 7.55895L12.2666 5.04474L12.1883 5.00554L12.1883 5.00554C11.7403 4.78116 11.3879 4.60467 11.0072 4.53324Z" fill="#FDFDFD" fill-opacity="0.8"/>
</svg>
