<svg width="22" height="18" viewBox="0 0 22 18" fill="none" xmlns="http://www.w3.org/2000/svg">
<path fill-rule="evenodd" clip-rule="evenodd" d="M8.2 0.25H8.16669H8.16668C6.93478 0.249995 5.96432 0.249991 5.18334 0.3138C4.38657 0.378898 3.7212 0.51413 3.11655 0.822216C2.1287 1.32555 1.32555 2.1287 0.822216 3.11655C0.51413 3.7212 0.378898 4.38657 0.3138 5.18334C0.249991 5.96432 0.249995 6.93478 0.25 8.16668V8.16669V8.2V9.8V9.83331V9.83332C0.249995 11.0652 0.249991 12.0357 0.3138 12.8167C0.378898 13.6134 0.51413 14.2788 0.822216 14.8835C1.32555 15.8713 2.1287 16.6744 3.11655 17.1778C3.7212 17.4859 4.38657 17.6211 5.18334 17.6862C5.96432 17.75 6.93477 17.75 8.16667 17.75H8.2H13.8H13.8333C15.0652 17.75 16.0357 17.75 16.8167 17.6862C17.6134 17.6211 18.2788 17.4859 18.8835 17.1778C19.8713 16.6744 20.6744 15.8713 21.1778 14.8835C21.4859 14.2788 21.6211 13.6134 21.6862 12.8167C21.75 12.0357 21.75 11.0652 21.75 9.83322V9.8V8.2V8.16678C21.75 6.93483 21.75 5.96434 21.6862 5.18334C21.6211 4.38657 21.4859 3.7212 21.1778 3.11655C20.6744 2.1287 19.8713 1.32555 18.8835 0.822216C18.2788 0.51413 17.6134 0.378898 16.8167 0.3138C16.0357 0.249991 15.0652 0.249995 13.8333 0.25H13.8333H13.8H8.2ZM3.79754 2.15873C4.15549 1.97634 4.60148 1.86634 5.30548 1.80882C6.01824 1.75058 6.92751 1.75 8.2 1.75H13.8C15.0725 1.75 15.9818 1.75058 16.6945 1.80882C17.3985 1.86634 17.8445 1.97634 18.2025 2.15873C18.9081 2.51825 19.4818 3.09193 19.8413 3.79754C20.0237 4.15549 20.1337 4.60148 20.1912 5.30548C20.2494 6.01824 20.25 6.92751 20.25 8.2V9.8C20.25 11.0725 20.2494 11.9818 20.1912 12.6945C20.1337 13.3985 20.0237 13.8445 19.8413 14.2025C19.4818 14.9081 18.9081 15.4817 18.2025 15.8413C17.8445 16.0237 17.3985 16.1337 16.6945 16.1912C15.9818 16.2494 15.0725 16.25 13.8 16.25H8.2C6.92751 16.25 6.01824 16.2494 5.30548 16.1912C4.60148 16.1337 4.15549 16.0237 3.79754 15.8413C3.09193 15.4817 2.51825 14.9081 2.15873 14.2025C1.97634 13.8445 1.86634 13.3985 1.80882 12.6945C1.75058 11.9818 1.75 11.0725 1.75 9.8V8.2C1.75 6.92751 1.75058 6.01824 1.80882 5.30548C1.86634 4.60148 1.97634 4.15549 2.15873 3.79754C2.51825 3.09193 3.09193 2.51825 3.79754 2.15873ZM4.3721 3.84882C4.01247 3.64331 3.55433 3.76826 3.34882 4.1279C3.14331 4.48753 3.26826 4.94568 3.6279 5.15118L10.1318 8.86767C10.6698 9.17511 11.3302 9.17511 11.8682 8.86767L18.3721 5.15118C18.7317 4.94568 18.8567 4.48753 18.6512 4.1279C18.4457 3.76826 17.9875 3.64331 17.6279 3.84882L11.124 7.56531C11.0472 7.60923 10.9528 7.60923 10.876 7.56531L4.3721 3.84882Z" fill="#0A0A0A"/>
</svg>
