<svg width="20" height="21" viewBox="0 0 20 21" fill="none" xmlns="http://www.w3.org/2000/svg">
<path fill-rule="evenodd" clip-rule="evenodd" d="M9.83123 0.32918C10.0424 0.223607 10.2909 0.223607 10.5021 0.32918L19.5021 4.82918C19.7561 4.95622 19.9166 5.21592 19.9166 5.5C19.9166 5.78408 19.7561 6.04378 19.5021 6.17082L10.5021 10.6708C10.2909 10.7764 10.0424 10.7764 9.83123 10.6708L0.83123 6.17082C0.577142 6.04378 0.416641 5.78408 0.416641 5.5C0.416641 5.21592 0.577142 4.95622 0.83123 4.82918L9.83123 0.32918ZM2.84369 5.5L10.1666 9.16147L17.4896 5.5L10.1666 1.83853L2.84369 5.5ZM0.511023 14.6358C0.712182 14.2737 1.16878 14.1432 1.53087 14.3444L10.1666 19.142L18.8024 14.3444C19.1645 14.1432 19.6211 14.2737 19.8223 14.6358C20.0234 14.9979 19.893 15.4545 19.5309 15.6556L10.5309 20.6556C10.3044 20.7815 10.0289 20.7815 9.80241 20.6556L0.802408 15.6556C0.440321 15.4545 0.309863 14.9979 0.511023 14.6358ZM1.53087 9.34438C1.16878 9.14322 0.712182 9.27368 0.511023 9.63577C0.309863 9.99786 0.440321 10.4545 0.802408 10.6556L9.80241 15.6556C10.0289 15.7815 10.3044 15.7815 10.5309 15.6556L19.5309 10.6556C19.893 10.4545 20.0234 9.99786 19.8223 9.63577C19.6211 9.27368 19.1645 9.14322 18.8024 9.34438L10.1666 14.142L1.53087 9.34438Z" fill="#FDFDFD" fill-opacity="0.8"/>
</svg>
