<svg width="17" height="20" viewBox="0 0 17 20" fill="none" xmlns="http://www.w3.org/2000/svg">
<path fill-rule="evenodd" clip-rule="evenodd" d="M2.86355 0.0554454C3.42031 0.0277866 3.94738 0.248159 4.46759 0.539823C4.9882 0.831714 5.62066 1.26654 6.40588 1.80639L6.43779 1.82833L13.5894 6.74503L13.6192 6.76553C14.2375 7.19064 14.7436 7.53855 15.12 7.85083C15.5043 8.16972 15.8337 8.51439 16.0159 8.96109C16.2877 9.62704 16.2877 10.373 16.0159 11.0389C15.8337 11.4856 15.5043 11.8303 15.12 12.1492C14.7436 12.4614 14.2375 12.8094 13.6192 13.2345L13.5894 13.255L6.43779 18.1717L6.40589 18.1936L6.40584 18.1936C5.62064 18.7335 4.98819 19.1683 4.46759 19.4602C3.94738 19.7518 3.42031 19.9722 2.86355 19.9445C2.05497 19.9044 1.30516 19.51 0.813976 18.8664C0.475767 18.4233 0.358763 17.8641 0.304394 17.2702C0.249983 16.6759 0.24999 15.9084 0.25 14.9556V14.9555V14.9167V5.08329V5.04447V5.04437C0.24999 4.09157 0.249983 3.32412 0.304394 2.72979C0.358763 2.13588 0.475767 1.5767 0.813976 1.13358C1.30516 0.490034 2.05497 0.0956147 2.86355 0.0554454Z" fill="#0A0A0A"/>
</svg>
