<svg width="14" height="14" viewBox="0 0 14 14" fill="none" xmlns="http://www.w3.org/2000/svg">
<path fill-rule="evenodd" clip-rule="evenodd" d="M7.75 1C7.75 0.585786 7.41421 0.25 7 0.25C6.58579 0.25 6.25 0.585786 6.25 1V6.25H1C0.585786 6.25 0.25 6.58579 0.25 7C0.25 7.41421 0.585786 7.75 1 7.75H6.25V13C6.25 13.4142 6.58579 13.75 7 13.75C7.41421 13.75 7.75 13.4142 7.75 13V7.75H13C13.4142 7.75 13.75 7.41421 13.75 7C13.75 6.58579 13.4142 6.25 13 6.25H7.75V1Z" fill="#FDFDFD" fill-opacity="0.9"/>
</svg>
