<svg width="20" height="20" viewBox="0 0 20 20" fill="none" xmlns="http://www.w3.org/2000/svg">
<path fill-rule="evenodd" clip-rule="evenodd" d="M0.25 5.5C0.25 2.60051 2.60051 0.25 5.5 0.25H6H12.172C13.5395 0.25 14.853 0.783567 15.8332 1.73719L18.1611 4.00223C19.1769 4.9906 19.75 6.34771 19.75 7.76504V14.5C19.75 17.3995 17.3995 19.75 14.5 19.75H14H6H5.5C2.60051 19.75 0.25 17.3995 0.25 14.5V5.5ZM5.25 1.7582V3C5.25 5.07107 6.92893 6.75 9 6.75H14C14.4142 6.75 14.75 6.41421 14.75 6C14.75 5.58579 14.4142 5.25 14 5.25H9C7.75736 5.25 6.75 4.24264 6.75 3V1.75H12.172C13.1488 1.75 14.087 2.13112 14.7871 2.81228L17.1151 5.07731C17.8407 5.7833 18.25 6.75266 18.25 7.76504V14.5C18.25 16.4871 16.7045 18.1132 14.75 18.2418V14C14.75 11.9289 13.0711 10.25 11 10.25H9C6.92893 10.25 5.25 11.9289 5.25 14V18.2418C3.29549 18.1132 1.75 16.4871 1.75 14.5V5.5C1.75 3.51294 3.29549 1.88685 5.25 1.7582ZM6.75 14V18.25H13.25V14C13.25 12.7574 12.2426 11.75 11 11.75H9C7.75736 11.75 6.75 12.7574 6.75 14Z" fill="#0A0A0A"/>
</svg>
