<svg width="22" height="22" viewBox="0 0 22 22" fill="none" xmlns="http://www.w3.org/2000/svg">
<path fill-rule="evenodd" clip-rule="evenodd" d="M1.75 10.5C1.75 5.94365 5.44365 2.25 10 2.25C14.5563 2.25 18.25 5.94365 18.25 10.5C18.25 15.0563 14.5563 18.75 10 18.75C5.44365 18.75 1.75 15.0563 1.75 10.5ZM10 0.75C4.61522 0.75 0.25 5.11522 0.25 10.5C0.25 15.8848 4.61522 20.25 10 20.25C12.4224 20.25 14.6385 19.3666 16.3437 17.9043L19.9697 21.5303C20.2626 21.8232 20.7374 21.8232 21.0303 21.5303C21.3232 21.2374 21.3232 20.7626 21.0303 20.4697L17.4043 16.8437C18.8666 15.1385 19.75 12.9224 19.75 10.5C19.75 5.11522 15.3848 0.75 10 0.75Z" fill="#FDFDFD"/>
</svg>
