<svg width="23" height="22" viewBox="0 0 23 22" fill="none" xmlns="http://www.w3.org/2000/svg">
<path fill-rule="evenodd" clip-rule="evenodd" d="M11.5 1.75C10.5071 1.75 9.79504 2.70707 10.0803 3.65803L10.1167 3.77925C10.324 4.47034 9.85632 5.18266 9.19047 5.46058C8.52479 5.73844 7.71464 5.55202 7.37265 4.91689L7.31222 4.80467C6.84153 3.93054 5.66129 3.75732 4.95928 4.45933C4.25727 5.16134 4.43049 6.34158 5.30462 6.81227L5.41681 6.87268C6.05196 7.21468 6.23838 8.02485 5.96052 8.69055C5.68259 9.35641 4.97024 9.82414 4.27914 9.6168L4.15797 9.58045C3.20704 9.29518 2.25 10.0072 2.25 11C2.25 11.9928 3.20704 12.7049 4.15797 12.4196L4.27916 12.3833C4.97027 12.1759 5.68261 12.6437 5.96054 13.3095C6.23841 13.9752 6.05199 14.7854 5.41684 15.1274L5.30461 15.1878C4.43048 15.6585 4.25726 16.8388 4.95927 17.5408C5.66128 18.2428 6.84152 18.0696 7.31221 17.1954L7.37267 17.0831C7.71467 16.448 8.52482 16.2616 9.19052 16.5394C9.85637 16.8174 10.3241 17.5297 10.1168 18.2208L10.0804 18.342C9.79512 19.293 10.5072 20.25 11.5 20.25C12.4928 20.25 13.2048 19.293 12.9196 18.342L12.8832 18.2208C12.6759 17.5297 13.1436 16.8173 13.8094 16.5394C14.4752 16.2615 15.2853 16.448 15.6273 17.0831L15.6878 17.1955C16.1585 18.0696 17.3388 18.2428 18.0408 17.5408C18.7428 16.8388 18.5696 15.6585 17.6954 15.1879L17.5831 15.1273C16.9479 14.7853 16.7615 13.9752 17.0394 13.3095C17.3173 12.6436 18.0296 12.1759 18.7207 12.3832L18.842 12.4196C19.793 12.7049 20.75 11.9928 20.75 11C20.75 10.0072 19.793 9.29516 18.842 9.58043L18.7207 9.61682C18.0296 9.82415 17.3173 9.35642 17.0394 8.69056C16.7615 8.02486 16.9479 7.21469 17.5831 6.8727L17.6954 6.81221C18.5695 6.34153 18.7427 5.16129 18.0407 4.45928C17.3387 3.75727 16.1585 3.93049 15.6878 4.80462L15.6273 4.91689C15.2853 5.55205 14.4751 5.73847 13.8094 5.46059C13.1436 5.18266 12.6758 4.47031 12.8832 3.7792L12.9195 3.65797C13.2048 2.70704 12.4928 1.75 11.5 1.75ZM8.64359 4.08905C8.06958 2.17567 9.50234 0.25 11.5 0.25C13.4976 0.25 14.9303 2.17564 14.3563 4.08899C14.3543 4.09577 14.3637 4.0997 14.3671 4.09347C15.3141 2.33465 17.6889 1.98611 19.1014 3.39862C20.5139 4.81113 20.1654 7.18586 18.4065 8.13292C18.4003 8.13627 18.4042 8.14572 18.411 8.14369C20.3244 7.56969 22.25 9.00243 22.25 11C22.25 12.9976 20.3244 14.4304 18.411 13.8563C18.4042 13.8543 18.4004 13.8638 18.4066 13.8671C20.1654 14.8142 20.5139 17.1889 19.1014 18.6015C17.6889 20.014 15.3142 19.6654 14.3671 17.9066C14.3638 17.9004 14.3543 17.9042 14.3563 17.911C14.9303 19.8244 13.4976 21.75 11.5 21.75C9.50239 21.75 8.06965 19.8244 8.64366 17.911C8.64568 17.9043 8.63625 17.9004 8.63291 17.9066C7.68586 19.6654 5.31112 20.0139 3.89861 18.6014C2.4861 17.1889 2.83464 14.8142 4.59346 13.8671C4.59967 13.8638 4.59575 13.8543 4.58899 13.8564C2.67564 14.4304 0.75 12.9976 0.75 11C0.75 9.00245 2.67564 7.56971 4.58899 8.14371C4.59574 8.14574 4.59967 8.13631 4.59347 8.13297C2.83465 7.18592 2.48611 4.81118 3.89862 3.39867C5.31113 1.98616 7.68586 2.3347 8.63292 4.09352C8.63624 4.09968 8.6456 4.09575 8.64359 4.08905ZM9.25 11C9.25 9.75736 10.2574 8.75 11.5 8.75C12.7426 8.75 13.75 9.75736 13.75 11C13.75 12.2426 12.7426 13.25 11.5 13.25C10.2574 13.25 9.25 12.2426 9.25 11ZM11.5 7.25C9.42893 7.25 7.75 8.92893 7.75 11C7.75 13.0711 9.42893 14.75 11.5 14.75C13.5711 14.75 15.25 13.0711 15.25 11C15.25 8.92893 13.5711 7.25 11.5 7.25Z" fill="#FDFDFD" fill-opacity="0.8"/>
</svg>
