<svg width="22" height="21" viewBox="0 0 22 21" fill="none" xmlns="http://www.w3.org/2000/svg">
<path fill-rule="evenodd" clip-rule="evenodd" d="M10.25 4.5C10.25 2.42893 11.9289 0.75 14 0.75C15.8142 0.75 17.3275 2.03832 17.675 3.75L21 3.75C21.4142 3.75 21.75 4.08579 21.75 4.5C21.75 4.91421 21.4142 5.25 21 5.25L17.675 5.25C17.3275 6.96168 15.8142 8.25 14 8.25C11.9289 8.25 10.25 6.57107 10.25 4.5ZM14 2.25C15.2426 2.25 16.25 3.25736 16.25 4.5C16.25 5.74264 15.2426 6.75 14 6.75C12.7574 6.75 11.75 5.74264 11.75 4.5C11.75 3.25736 12.7574 2.25 14 2.25ZM1 3.75C0.585786 3.75 0.25 4.08579 0.25 4.5C0.25 4.91421 0.585786 5.25 1 5.25H7C7.41421 5.25 7.75 4.91421 7.75 4.5C7.75 4.08579 7.41421 3.75 7 3.75H1ZM1 17.25H3.32501C3.67247 18.9617 5.18578 20.25 7 20.25C9.07107 20.25 10.75 18.5711 10.75 16.5C10.75 14.4289 9.07107 12.75 7 12.75C5.18578 12.75 3.67247 14.0383 3.32501 15.75H1C0.585786 15.75 0.25 16.0858 0.25 16.5C0.25 16.9142 0.585786 17.25 1 17.25ZM7 18.75C5.75736 18.75 4.75 17.7426 4.75 16.5C4.75 15.2574 5.75736 14.25 7 14.25C8.24264 14.25 9.25 15.2574 9.25 16.5C9.25 17.7426 8.24264 18.75 7 18.75ZM14 15.75C13.5858 15.75 13.25 16.0858 13.25 16.5C13.25 16.9142 13.5858 17.25 14 17.25H21C21.4142 17.25 21.75 16.9142 21.75 16.5C21.75 16.0858 21.4142 15.75 21 15.75L14 15.75Z" fill="#00DAC0"/>
</svg>
