<svg width="22" height="23" viewBox="0 0 22 23" fill="none" xmlns="http://www.w3.org/2000/svg">
<path fill-rule="evenodd" clip-rule="evenodd" d="M9.72982 0.749999L9.62102 0.749892C9.10842 0.749126 8.65851 0.748454 8.25762 0.906121C7.90709 1.04399 7.59677 1.26765 7.35513 1.5566C7.07878 1.88706 6.93715 2.31409 6.77577 2.80063L6.74147 2.90388L6.45943 3.75H3H1C0.585786 3.75 0.25 4.08579 0.25 4.5C0.25 4.91421 0.585786 5.25 1 5.25H2.29282L2.84024 14.5561L2.84177 14.5822C2.90335 15.629 2.95168 16.4507 3.03388 17.1147C3.1176 17.7909 3.24147 18.3529 3.47666 18.8722C4.10057 20.2498 5.24212 21.3262 6.65402 21.8681C7.18623 22.0724 7.75449 22.1631 8.4345 22.2069C9.10218 22.25 9.92528 22.25 10.9739 22.25H11H11.0261C12.0747 22.25 12.8978 22.25 13.5655 22.2069C14.2455 22.1631 14.8138 22.0724 15.346 21.8681C16.7579 21.3262 17.8994 20.2498 18.5233 18.8722C18.7585 18.3529 18.8824 17.7909 18.9661 17.1147C19.0483 16.4507 19.0967 15.629 19.1582 14.5822L19.1598 14.5561L19.7072 5.25H21C21.4142 5.25 21.75 4.91421 21.75 4.5C21.75 4.08579 21.4142 3.75 21 3.75H19H15.5406L15.2585 2.90388L15.2242 2.80063C15.0629 2.31409 14.9212 1.88706 14.6449 1.5566C14.4032 1.26765 14.0929 1.04399 13.7424 0.906121C13.3415 0.748454 12.8916 0.749126 12.379 0.749892L12.2702 0.749999H9.72982ZM14.9825 5.25C14.9941 5.25027 15.0057 5.25027 15.0173 5.25H18.2046L17.6623 14.468C17.5989 15.5465 17.553 16.32 17.4775 16.9304C17.4028 17.534 17.3041 17.9285 17.1569 18.2533C16.6958 19.2716 15.852 20.0672 14.8085 20.4677C14.4756 20.5955 14.0759 20.6709 13.4689 20.71C12.8552 20.7496 12.0803 20.75 11 20.75C9.91965 20.75 9.14481 20.7496 8.53105 20.71C7.92408 20.6709 7.52444 20.5955 7.19154 20.4677C6.14797 20.0672 5.30421 19.2716 4.84306 18.2533C4.69595 17.9285 4.59724 17.534 4.52252 16.9304C4.44695 16.32 4.40109 15.5465 4.33765 14.468L3.79541 5.25H6.98268C6.99433 5.25027 7.00594 5.25027 7.01753 5.25H14.9825ZM13.9594 3.75L13.8355 3.37822C13.6186 2.7274 13.5633 2.60152 13.4942 2.51887C13.4137 2.42255 13.3102 2.348 13.1934 2.30204C13.0931 2.2626 12.9562 2.25 12.2702 2.25H9.72982C9.04379 2.25 8.90691 2.2626 8.80663 2.30204C8.68979 2.348 8.58635 2.42255 8.5058 2.51887C8.43668 2.60152 8.38144 2.7274 8.16449 3.37822L8.04057 3.75H13.9594ZM9.75 9.5C9.75 9.08579 9.41421 8.75 9 8.75C8.58579 8.75 8.25 9.08579 8.25 9.5V16.5C8.25 16.9142 8.58579 17.25 9 17.25C9.41421 17.25 9.75 16.9142 9.75 16.5V9.5ZM13 8.75C13.4142 8.75 13.75 9.08579 13.75 9.5V16.5C13.75 16.9142 13.4142 17.25 13 17.25C12.5858 17.25 12.25 16.9142 12.25 16.5V9.5C12.25 9.08579 12.5858 8.75 13 8.75Z" fill="#FDFDFD"/>
</svg>
