<svg width="22" height="22" viewBox="0 0 22 22" fill="none" xmlns="http://www.w3.org/2000/svg">
<path fill-rule="evenodd" clip-rule="evenodd" d="M0.25 11C0.25 5.06294 5.06294 0.25 11 0.25C16.9371 0.25 21.75 5.06294 21.75 11C21.75 16.9371 16.9371 21.75 11 21.75C5.06294 21.75 0.25 16.9371 0.25 11ZM11 1.75C5.89137 1.75 1.75 5.89137 1.75 11C1.75 16.1086 5.89137 20.25 11 20.25C16.1086 20.25 20.25 16.1086 20.25 11C20.25 5.89137 16.1086 1.75 11 1.75ZM11.5584 13.0034L12.3247 6.48975C12.418 5.69677 11.7984 5.00002 11 5.00002C10.2016 5.00002 9.58197 5.69677 9.67526 6.48975L10.4416 13.0034C10.4749 13.2866 10.7149 13.5 11 13.5C11.2851 13.5 11.5251 13.2866 11.5584 13.0034ZM11 17C11.5523 17 12 16.5523 12 16C12 15.4477 11.5523 15 11 15C10.4477 15 10 15.4477 10 16C10 16.5523 10.4477 17 11 17Z" fill="#0A0A0A"/>
</svg>
