<svg width="16" height="16" viewBox="0 0 16 16" fill="none" xmlns="http://www.w3.org/2000/svg">
<path fill-rule="evenodd" clip-rule="evenodd" d="M15.73 1.33038C16.0229 1.03749 16.0229 0.562612 15.73 0.269719C15.4371 -0.0231745 14.9623 -0.0231745 14.6694 0.269719L7.9997 6.93939L1.33003 0.269723C1.03714 -0.0231704 0.562262 -0.0231707 0.269369 0.269723C-0.0235242 0.562616 -0.023524 1.03749 0.269369 1.33038L6.93904 8.00005L0.269368 14.6697C-0.0235252 14.9626 -0.0235255 15.4375 0.269368 15.7304C0.562261 16.0233 1.03714 16.0233 1.33003 15.7304L7.9997 9.06071L14.6694 15.7304C14.9623 16.0233 15.4371 16.0233 15.73 15.7304C16.0229 15.4375 16.0229 14.9626 15.73 14.6697L9.06036 8.00005L15.73 1.33038Z" fill="#0A0A0A"/>
</svg>
