<svg width="20" height="20" viewBox="0 0 20 20" fill="none" xmlns="http://www.w3.org/2000/svg">
<g clip-path="url(#clip0_245_2504)">
<circle cx="10" cy="10" r="10" fill="#0A0A0A" fill-opacity="0.5"/>
<path fill-rule="evenodd" clip-rule="evenodd" d="M13.0252 14.0861C13.3181 14.379 13.793 14.379 14.0858 14.0861C14.3787 13.7932 14.3787 13.3183 14.0858 13.0254L11.0604 9.99999L14.0858 6.97454C14.3787 6.68165 14.3787 6.20678 14.0858 5.91388C13.793 5.62099 13.3181 5.62099 13.0252 5.91388L9.99974 8.93933L6.9743 5.91388C6.68141 5.62099 6.20653 5.62099 5.91364 5.91388C5.62075 6.20678 5.62075 6.68165 5.91364 6.97454L8.93908 9.99999L5.91364 13.0254C5.62075 13.3183 5.62075 13.7932 5.91364 14.0861C6.20653 14.379 6.68141 14.379 6.9743 14.0861L9.99974 11.0606L13.0252 14.0861Z" fill="#FDFDFD"/>
</g>
<defs>
<clipPath id="clip0_245_2504">
<rect width="20" height="20" fill="white"/>
</clipPath>
</defs>
</svg>
